<svg xmlns="http://www.w3.org/2000/svg" width="612" height="612" viewBox="0 0 612 612" version="1.1">
	<path d="M 286.468 25.816 C 270.031 30.004, 256.766 38.429, 247.504 50.563 C 233.131 69.392, 224.467 109.498, 229.485 133.973 C 232.764 149.961, 242.559 174.236, 249.395 183.314 C 254.230 189.734, 255.369 195.209, 255.437 212.348 L 255.500 228.196 257.500 223.848 C 259.273 219.994, 259.494 217.456, 259.445 201.500 C 259.398 186.303, 259.039 182.099, 257.142 174.500 C 254.272 163.002, 250.994 146.492, 251.022 143.676 C 251.038 142.125, 251.590 142.703, 252.947 145.691 C 257.518 155.760, 276.769 157.997, 288.285 149.797 C 291.722 147.349, 295.055 142.183, 297.509 135.500 C 299.940 128.877, 300.716 128, 304.148 128 C 306.798 128, 307.357 128.673, 310.578 135.750 C 316.597 148.973, 323.582 154.061, 336 154.266 C 350 154.497, 355.625 150.732, 358.440 139.245 C 359.417 135.260, 360.450 132, 360.737 132 C 361.785 132, 359.781 146.607, 357.500 155.598 C 356.186 160.780, 352.956 169.214, 350.144 174.810 C 347.387 180.296, 344.832 186.376, 344.468 188.322 C 343.663 192.609, 345.200 200.277, 348.156 206.729 C 350.441 211.716, 359.064 225.270, 359.606 224.727 C 359.778 224.555, 359.008 221.508, 357.893 217.957 C 356.779 214.406, 355.623 207.675, 355.325 203 C 354.503 190.130, 357.594 179.491, 371.741 146.500 C 382.441 121.547, 385.035 112.262, 385.149 98.496 C 385.204 91.803, 384.612 88.379, 382.021 80.409 C 378.233 68.755, 376.199 64.537, 370.472 56.453 C 360.668 42.613, 346.786 33.092, 327.500 26.978 C 317.647 23.855, 296.513 23.256, 286.468 25.816 M 291 43.608 C 268.242 49.718, 252.311 66.861, 245.054 93.047 C 242.534 102.140, 242.483 104, 244.753 104 C 246.019 104, 247.161 102.122, 248.860 97.250 C 254.658 80.622, 266.114 67.126, 280.471 60.015 C 287.582 56.492, 290.306 55.721, 298.803 54.829 C 321.760 52.416, 338.779 59.339, 353.309 77 C 357.600 82.215, 363.813 93.644, 365.526 99.471 C 366.393 102.422, 367.310 103.589, 368.953 103.832 C 371.005 104.136, 371.136 103.882, 370.495 100.832 C 370.109 99, 368.045 92.986, 365.907 87.468 C 357.219 65.049, 342.504 49.325, 325.217 43.985 C 317.302 41.541, 299.435 41.344, 291 43.608 M 319.457 85.379 C 298.349 94.998, 285.714 99.436, 269.328 102.986 C 258.081 105.423, 257.255 105.807, 253.137 110.497 C 248.451 115.834, 248.887 116.291, 257.750 115.335 C 270.025 114.012, 279.606 114.461, 292.259 116.950 L 304.019 119.264 318.094 116.481 C 330.702 113.989, 333.504 113.763, 344.981 114.312 L 357.793 114.925 357.283 112.712 C 356.118 107.666, 348.862 94.101, 345.314 90.337 C 341.446 86.234, 335.548 82.704, 331 81.771 C 329.357 81.433, 325.402 82.670, 319.457 85.379 M 264.299 110.106 C 262.539 110.615, 260.836 111.457, 260.515 111.976 C 260.189 112.503, 261.317 112.437, 263.067 111.827 C 266.148 110.753, 280.397 111.222, 286.250 112.590 C 287.814 112.956, 289 112.811, 289 112.255 C 289 109.761, 270.929 108.189, 264.299 110.106 M 326.250 110.195 C 323.363 110.722, 321 111.618, 321 112.188 C 321 112.870, 322.277 112.929, 324.750 112.361 C 326.813 111.888, 332.921 111.500, 338.325 111.500 C 346.885 111.500, 347.786 111.345, 345.325 110.295 C 342.017 108.884, 333.678 108.840, 326.250 110.195 M 266.785 117.061 C 254.028 118.551, 250.855 122.759, 253.037 135.288 C 254.976 146.427, 258.604 150.139, 269.140 151.765 C 276.281 152.866, 281.790 151.622, 286.323 147.885 C 291.170 143.890, 294.099 138.023, 294.717 131.072 C 295.133 126.400, 294.862 125.058, 293.041 122.759 C 289.529 118.327, 277.775 115.776, 266.785 117.061 M 330 116.597 C 314.283 119.428, 310.938 122.566, 313.008 132.538 C 314.242 138.484, 318.703 146.104, 322.347 148.492 C 326.419 151.160, 337.180 152.502, 343.378 151.115 C 352.014 149.182, 355.269 144.658, 356.447 132.951 C 356.994 127.508, 356.783 126.001, 355.096 123.304 C 351.914 118.221, 348.945 116.853, 340.285 116.481 C 336.003 116.297, 331.375 116.349, 330 116.597 M 272 130.525 C 272 133.271, 275.606 135.343, 279.434 134.795 C 281.879 134.446, 282.925 129.569, 280.736 128.729 C 279.837 128.384, 279.387 128.909, 279.431 130.250 C 279.469 131.376, 278.938 132.493, 278.251 132.732 C 276.442 133.361, 275.426 129.977, 277.104 128.914 C 278.080 128.297, 277.522 128.026, 275.250 128.015 C 272.437 128.002, 272 128.340, 272 130.525 M 331.965 129.457 C 332.924 130.614, 333.005 131.395, 332.245 132.155 C 330.922 133.478, 329 132.413, 329 130.358 C 329 129.519, 328.466 129.011, 327.813 129.229 C 325.990 129.837, 325.830 131.386, 327.372 133.495 C 328.573 135.137, 329.320 135.273, 332.636 134.454 C 335.836 133.664, 336.500 133.071, 336.500 131 C 336.500 128.976, 335.940 128.436, 333.557 128.165 C 330.938 127.867, 330.763 128.009, 331.965 129.457 M 451 251.238 C 441.375 252.244, 432.449 253.599, 431.163 254.249 C 429.878 254.899, 427.966 257.021, 426.915 258.965 C 425.211 262.115, 425.069 262.199, 425.613 259.737 C 426.564 255.434, 424.630 254, 417.878 254 C 413.850 254, 411.995 254.394, 411.985 255.250 C 411.974 256.096, 411.630 256.015, 410.922 255 C 410.166 253.917, 409.986 255.657, 410.277 261.250 C 410.498 265.512, 410.301 269, 409.840 269 C 408.590 269, 408.822 275.774, 410.086 276.195 C 410.823 276.441, 410.883 277.672, 410.273 280.029 L 409.374 283.500 389.687 283.771 L 370 284.042 370 288.521 L 370 293 389.910 293 L 409.821 293 409.254 328.656 C 408.827 355.509, 408.973 364.135, 409.844 363.597 C 410.480 363.204, 411 363.359, 411 363.941 C 411 364.523, 410.438 365.007, 409.750 365.015 C 408.892 365.026, 408.956 365.319, 409.952 365.949 C 410.751 366.455, 411.763 366.646, 412.202 366.375 C 412.641 366.104, 413.007 366.471, 413.015 367.191 C 413.027 368.153, 413.312 368.102, 414.091 367 C 415.034 365.667, 415.102 365.667, 414.701 367 C 414.240 368.534, 413.689 368.612, 410.917 367.531 C 409.620 367.026, 409.417 367.509, 409.793 370.207 C 410.045 372.018, 410.757 374.147, 411.376 374.937 C 412.287 376.103, 412.154 376.245, 410.668 375.687 C 409.661 375.309, 400.098 375, 389.418 375 L 370 375 370 336.500 L 370 298 361.025 298 L 352.051 298 352.275 356.250 L 352.500 414.500 332 414.608 C 314.552 414.699, 312.029 414.531, 315.055 413.478 C 329.127 408.578, 338.015 397.995, 337.990 386.167 C 337.978 380.319, 334.333 372.259, 329.639 367.701 C 325.642 363.819, 316.417 359, 312.984 359 C 311.709 359, 310.936 358.731, 311.265 358.402 C 311.594 358.073, 317.290 357.799, 323.923 357.793 C 330.721 357.787, 335.743 357.393, 335.433 356.891 C 335.130 356.401, 335.379 356, 335.986 356 C 338.195 356, 342 351.085, 342 348.233 C 342 345.412, 338.300 340.905, 335 339.704 C 334.093 339.373, 333.994 339.127, 334.750 339.079 C 335.632 339.023, 336 336.795, 336 331.520 L 336 324.039 314 324.679 L 292 325.319 292 320.012 L 292 314.705 318 315.424 L 344 316.143 344 309.565 L 344 302.988 267.250 303.244 L 190.500 303.500 190.200 309.250 L 189.900 315 229.950 315 L 270 315 270 320 L 270 325 224.500 325 L 179 325 178.921 333.250 C 178.878 337.788, 178.653 341.050, 178.423 340.500 C 177.887 339.223, 147 339.732, 147 341.018 C 147 341.523, 147.675 341.678, 148.500 341.362 C 149.325 341.045, 150 341.284, 150 341.893 C 150 342.502, 150.477 343, 151.059 343 C 151.641 343, 151.912 342.663, 151.661 342.250 C 151.192 341.481, 182.997 341.372, 279.333 341.812 C 327.397 342.032, 334.464 342.258, 336.583 343.646 C 339.730 345.709, 339.931 350.937, 336.935 352.809 C 335.285 353.839, 316.087 354.085, 241.506 354.030 C 170.940 353.979, 147.964 354.249, 147.414 355.139 C 146.910 355.954, 147.349 356.142, 148.844 355.751 C 151.141 355.150, 151.847 356.443, 149.750 357.410 C 149.063 357.727, 150.160 357.858, 152.188 357.701 C 155.040 357.481, 155.982 357.822, 156.344 359.208 C 156.789 360.911, 160.600 361, 232.931 361 C 306.492 361, 309.241 361.067, 314.742 363 C 330.235 368.446, 337.886 382.754, 332 395.276 C 329.316 400.986, 324.434 405.433, 317.046 408.899 L 311.500 411.500 233.750 411.779 C 166.122 412.022, 156 412.250, 156 413.529 C 156 414.767, 153.239 415, 138.544 415 L 121.089 415 122.566 410.814 C 124.933 404.104, 127.068 393.920, 126.351 392.759 C 125.987 392.170, 126.158 391.979, 126.731 392.334 C 127.321 392.699, 127.998 391.793, 128.294 390.241 C 128.582 388.736, 128.370 387.229, 127.824 386.891 C 127.278 386.554, 127.656 386.061, 128.665 385.796 C 130.104 385.418, 132.308 379.397, 138.876 357.907 C 143.483 342.833, 151.438 317, 156.554 300.500 C 161.669 284, 166 269.667, 166.177 268.650 C 166.437 267.164, 165.251 266.413, 160.150 264.833 C 156.658 263.751, 153.657 263.010, 153.482 263.185 C 153.307 263.360, 145.006 289.973, 135.037 322.324 C 123.404 360.075, 117.145 381.880, 117.563 383.198 C 118.027 384.661, 117.866 385.035, 117 384.500 C 116.118 383.955, 115.981 384.365, 116.500 386 C 116.939 387.382, 116.837 388.017, 116.236 387.646 C 114.770 386.740, 113.028 396.619, 114.403 398.037 C 115.209 398.867, 114.998 399.079, 113.607 398.834 C 112.128 398.573, 111.323 399.596, 109.934 403.500 C 108.956 406.250, 108.120 409.003, 108.078 409.618 C 108.035 410.233, 110.813 411.583, 114.250 412.618 L 120.500 414.500 102.752 414.773 L 85.005 415.046 89.895 424.773 C 94.028 432.993, 108.827 456.399, 110.903 458 C 111.260 458.275, 113.106 460.525, 115.005 463 C 124.735 475.677, 139.361 490.060, 157.462 504.751 C 164.246 510.257, 184.756 522.947, 195.828 528.489 C 221.471 541.324, 246.187 548.882, 276.500 553.159 C 288.027 554.785, 323.808 554.801, 335.500 553.185 C 387.898 545.942, 429.276 527.080, 469.404 492.145 C 491.574 472.844, 514.973 441.712, 526.824 415.750 C 527.013 415.337, 510.854 415, 490.917 415 C 470.979 415, 454.854 414.823, 455.083 414.606 C 455.313 414.390, 462.700 413.449, 471.500 412.515 C 487.853 410.781, 489.784 410.140, 492.188 405.648 C 492.892 404.333, 492.365 396.021, 490.421 377.799 L 487.651 351.825 483.575 352.360 C 481.334 352.654, 469.938 353.896, 458.250 355.119 C 440.495 356.977, 437 357.603, 437.002 358.922 C 437.005 360.421, 440.338 392.504, 441.667 403.819 C 442.142 407.868, 442.991 409.837, 445.223 412.069 L 448.154 415 437.077 415 L 426 415 426 412.500 C 426 411.125, 425.438 409.993, 424.750 409.985 C 423.788 409.973, 423.799 409.780, 424.798 409.146 C 425.835 408.488, 426.087 398.186, 426.049 357.911 C 425.997 301.712, 425.766 290.414, 424.607 287.500 C 423.963 285.881, 424.025 285.786, 424.934 287 C 425.813 288.173, 426.008 287.520, 425.831 284 C 425.529 277.967, 426.058 264.244, 426.546 265.500 C 426.759 266.050, 427.821 274.760, 428.906 284.856 C 429.991 294.952, 431.133 303.467, 431.444 303.777 C 431.961 304.295, 480.938 299.404, 481.552 298.774 C 481.700 298.623, 480.784 288.885, 479.518 277.133 C 477.053 254.254, 476.113 251.285, 470.932 250.008 C 469.595 249.678, 460.625 250.232, 451 251.238 M 154.445 272.174 C 153.738 274.402, 156.337 277.388, 158.388 276.704 C 160.068 276.144, 161.343 273.337, 160.691 271.636 C 159.742 269.165, 155.278 269.550, 154.445 272.174 M 418.750 277.662 C 419.438 277.940, 420.563 277.940, 421.250 277.662 C 421.938 277.385, 421.375 277.158, 420 277.158 C 418.625 277.158, 418.063 277.385, 418.750 277.662 M 411.459 280.067 C 411.096 280.653, 411.014 281.348, 411.276 281.610 C 411.538 281.872, 412.019 281.392, 412.345 280.543 C 413.021 278.781, 412.445 278.471, 411.459 280.067 M 409 287.941 C 409 289.009, 409.385 290.120, 409.856 290.411 C 410.326 290.702, 410.499 289.828, 410.239 288.470 C 409.675 285.519, 409 285.231, 409 287.941 M 356 357 C 356 402.556, 356.186 409, 357.500 409 C 358.814 409, 359 402.556, 359 357 C 359 311.444, 358.814 305, 357.500 305 C 356.186 305, 356 311.444, 356 357 M 196.750 339.662 C 197.438 339.940, 198.563 339.940, 199.250 339.662 C 199.938 339.385, 199.375 339.158, 198 339.158 C 196.625 339.158, 196.063 339.385, 196.750 339.662 M 225.250 339.689 C 226.213 339.941, 227.787 339.941, 228.750 339.689 C 229.713 339.438, 228.925 339.232, 227 339.232 C 225.075 339.232, 224.287 339.438, 225.250 339.689 M 412.500 373 C 412.840 373.550, 413.316 374, 413.559 374 C 413.802 374, 414 373.550, 414 373 C 414 372.450, 413.523 372, 412.941 372 C 412.359 372, 412.160 372.450, 412.500 373 M 118.079 393.583 C 118.127 394.748, 118.364 394.985, 118.683 394.188 C 118.972 393.466, 118.936 392.603, 118.604 392.271 C 118.272 391.939, 118.036 392.529, 118.079 393.583 M 411.564 393.707 C 411.022 395.132, 411.136 395.247, 412.124 394.267 C 412.808 393.588, 413.115 392.781, 412.807 392.474 C 412.499 392.166, 411.940 392.721, 411.564 393.707 M 370 405.500 L 370 415.042 389.750 414.771 L 409.500 414.500 409.500 405.500 L 409.500 396.500 389.750 396.229 L 370 395.958 370 405.500" stroke="none" fill="black" fill-rule="evenodd"/>
</svg>